<svg width="198" height="80" viewBox="0 0 198 80" fill="none" xmlns="http://www.w3.org/2000/svg">
<path d="M153.138 46.1841H158.13V50.7441H153.138V63.0321C153.138 64.1841 153.33 64.9521 153.714 65.3361C154.098 65.7201 154.866 65.9121 156.018 65.9121C156.402 65.9121 156.77 65.8961 157.122 65.8641C157.474 65.8321 157.81 65.7841 158.13 65.7201V71.0001C157.554 71.0961 156.914 71.1601 156.21 71.1921C155.506 71.2241 154.818 71.2401 154.146 71.2401C153.09 71.2401 152.082 71.1601 151.122 71.0001C150.194 70.8721 149.362 70.6001 148.626 70.1841C147.922 69.7681 147.362 69.1761 146.946 68.4081C146.53 67.6401 146.322 66.6321 146.322 65.3841V50.7441H142.194V46.1841H146.322V38.7441H153.138V46.1841Z" fill="black"/>
<path d="M133.832 54.9201C133.384 52.0721 131.704 50.6481 128.792 50.6481C127.704 50.6481 126.792 50.9041 126.056 51.4161C125.32 51.8961 124.712 52.5361 124.232 53.3361C123.784 54.1041 123.464 54.9681 123.272 55.9281C123.08 56.8561 122.984 57.7841 122.984 58.7121C122.984 59.6081 123.08 60.5201 123.272 61.4481C123.464 62.3761 123.768 63.2241 124.184 63.9921C124.632 64.7281 125.224 65.3361 125.96 65.8161C126.696 66.2961 127.592 66.5361 128.648 66.5361C130.28 66.5361 131.528 66.0881 132.392 65.1921C133.288 64.2641 133.848 63.0321 134.072 61.4961H140.648C140.2 64.7921 138.92 67.3041 136.808 69.0321C134.696 70.7601 131.992 71.6241 128.696 71.6241C126.84 71.6241 125.128 71.3201 123.56 70.7121C122.024 70.0721 120.712 69.1921 119.624 68.0721C118.536 66.9521 117.688 65.6241 117.08 64.0881C116.472 62.5201 116.168 60.8081 116.168 58.9521C116.168 57.0321 116.44 55.2561 116.984 53.6241C117.56 51.9601 118.392 50.5361 119.48 49.3521C120.568 48.1361 121.896 47.1921 123.464 46.5201C125.032 45.8481 126.824 45.5121 128.84 45.5121C130.312 45.5121 131.72 45.7041 133.064 46.0881C134.44 46.4721 135.656 47.0641 136.712 47.8641C137.8 48.6321 138.68 49.6081 139.352 50.7921C140.024 51.9441 140.408 53.3201 140.504 54.9201H133.832Z" fill="black"/>
<path d="M111.569 42.3441H104.753V36.7281H111.569V42.3441ZM104.753 46.1841H111.569V71.0001H104.753V46.1841Z" fill="black"/>
<path d="M77.2386 64.6641H83.9586C85.0466 64.6641 86.1026 64.4881 87.1266 64.1361C88.1506 63.7841 89.0626 63.2081 89.8626 62.4081C90.6626 61.5761 91.3026 60.5041 91.7826 59.1921C92.2626 57.8801 92.5026 56.2801 92.5026 54.3921C92.5026 52.6641 92.3266 51.1121 91.9746 49.7361C91.6546 48.3281 91.1106 47.1281 90.3426 46.1361C89.5746 45.1441 88.5506 44.3921 87.2706 43.8801C86.0226 43.3361 84.4706 43.0641 82.6146 43.0641H77.2386V64.6641ZM69.7026 36.7281H84.4866C86.6946 36.7281 88.7426 37.0801 90.6306 37.7841C92.5506 38.4881 94.1986 39.5441 95.5746 40.9521C96.9826 42.3601 98.0706 44.1201 98.8386 46.2321C99.6386 48.3441 100.039 50.8241 100.039 53.6721C100.039 56.1681 99.7186 58.4721 99.0786 60.5841C98.4386 62.6961 97.4626 64.5201 96.1506 66.0561C94.8706 67.5921 93.2546 68.8081 91.3026 69.7041C89.3826 70.5681 87.1106 71.0001 84.4866 71.0001H69.7026V36.7281Z" fill="black"/>
<path d="M56.332 74.0721C55.596 76.0881 54.572 77.5281 53.26 78.3921C51.948 79.2561 50.124 79.6881 47.788 79.6881C47.084 79.6881 46.38 79.6561 45.676 79.5921C45.004 79.5601 44.316 79.5121 43.612 79.4481V73.8321C44.252 73.8961 44.908 73.9601 45.58 74.0241C46.252 74.0881 46.924 74.1041 47.596 74.0721C48.492 73.9761 49.148 73.6241 49.564 73.0161C50.012 72.4081 50.236 71.7361 50.236 71.0001C50.236 70.4561 50.14 69.9441 49.948 69.4641L41.26 46.1841H48.508L54.124 63.1761H54.22L59.644 46.1841H66.7L56.332 74.0721Z" fill="black"/>
<path d="M0.783997 46.1841H7.216V49.5441H7.312C8.208 48.2641 9.28 47.2721 10.528 46.5681C11.808 45.8641 13.264 45.5121 14.896 45.5121C16.464 45.5121 17.888 45.8161 19.168 46.4241C20.48 47.0321 21.472 48.1041 22.144 49.6401C22.88 48.5521 23.872 47.5921 25.12 46.7601C26.4 45.9281 27.904 45.5121 29.632 45.5121C30.944 45.5121 32.16 45.6721 33.28 45.9921C34.4 46.3121 35.36 46.8241 36.16 47.5281C36.96 48.2321 37.584 49.1601 38.032 50.3121C38.48 51.4321 38.704 52.7921 38.704 54.3921V71.0001H31.888V56.9361C31.888 56.1041 31.856 55.3201 31.792 54.5841C31.728 53.8481 31.552 53.2081 31.264 52.6641C30.976 52.1201 30.544 51.6881 29.968 51.3681C29.424 51.0481 28.672 50.8881 27.712 50.8881C26.752 50.8881 25.968 51.0801 25.36 51.4641C24.784 51.8161 24.32 52.2961 23.968 52.9041C23.648 53.4801 23.424 54.1521 23.296 54.9201C23.2 55.6561 23.152 56.4081 23.152 57.1761V71.0001H16.336V57.0801C16.336 56.3441 16.32 55.6241 16.288 54.9201C16.256 54.1841 16.112 53.5121 15.856 52.9041C15.632 52.2961 15.232 51.8161 14.656 51.4641C14.112 51.0801 13.296 50.8881 12.208 50.8881C11.888 50.8881 11.456 50.9681 10.912 51.1281C10.4 51.2561 9.888 51.5281 9.376 51.9441C8.896 52.3281 8.48 52.9041 8.128 53.6721C7.776 54.4081 7.6 55.3841 7.6 56.6001V71.0001H0.783997V46.1841Z" fill="black"/>
<path d="M174.188 1.88142C174.906 0.342912 177.094 0.342913 177.812 1.88142L179.883 6.31725C180.374 7.36717 181.651 7.78211 182.664 7.22084L186.947 4.84954C188.433 4.02708 190.203 5.31301 189.879 6.97991L188.948 11.7859C188.727 12.9235 189.516 14.0098 190.666 14.1516L195.525 14.7505C197.21 14.9583 197.886 17.039 196.645 18.1976L193.066 21.538C192.219 22.3287 192.219 23.6715 193.066 24.4621L196.645 27.8026C197.886 28.9612 197.21 31.0419 195.525 31.2496L190.666 31.8486C189.516 31.9904 188.727 33.0767 188.948 34.2142L189.879 39.0202C190.203 40.6871 188.433 41.9731 186.947 41.1506L182.664 38.7793C181.651 38.218 180.374 38.633 179.883 39.6829L177.812 44.1187C177.094 45.6572 174.906 45.6572 174.188 44.1187L172.117 39.6829C171.626 38.633 170.349 38.218 169.336 38.7793L165.053 41.1506C163.567 41.9731 161.797 40.6871 162.121 39.0202L163.052 34.2142C163.273 33.0767 162.484 31.9904 161.334 31.8486L156.475 31.2496C154.79 31.0419 154.114 28.9612 155.355 27.8026L158.934 24.4621C159.781 23.6715 159.781 22.3287 158.934 21.538L155.355 18.1976C154.114 17.039 154.79 14.9583 156.475 14.7505L161.334 14.1516C162.484 14.0098 163.273 12.9235 163.052 11.7859L162.121 6.97991C161.797 5.31301 163.567 4.02708 165.053 4.84954L169.336 7.22084C170.349 7.78211 171.626 7.36717 172.117 6.31725L174.188 1.88142Z" fill="#FEAE13"/>
</svg>
